<svg width="45" height="46" viewBox="0 0 45 46" fill="none" xmlns="http://www.w3.org/2000/svg">
<path d="M7.625 32.2399H16.875C19.3406 32.2399 20.5734 32.2399 21.4032 32.9208C21.5551 33.0455 21.6944 33.1848 21.819 33.3367C22.5 34.1665 22.5 35.3993 22.5 37.8649V13.8649C22.5 11.0364 22.5 9.62223 21.6213 8.74355C20.7426 7.86487 19.3284 7.86487 16.5 7.86487H7.625C6.68219 7.86487 6.21079 7.86487 5.91789 8.15776C5.625 8.45065 5.625 8.92206 5.625 9.86487V30.2399C5.625 31.1827 5.625 31.6541 5.91789 31.947C6.21079 32.2399 6.68219 32.2399 7.625 32.2399Z" fill="#7E869E" fill-opacity="0.25" stroke="#222222" stroke-width="1.2"/>
<path d="M37.375 32.2399H28.125C25.6594 32.2399 24.4266 32.2399 23.5968 32.9208C23.4449 33.0455 23.3056 33.1848 23.181 33.3367C22.5 34.1665 22.5 35.3993 22.5 37.8649V13.8649C22.5 11.0364 22.5 9.62223 23.3787 8.74355C24.2574 7.86487 25.6716 7.86487 28.5 7.86487H37.375C38.3178 7.86487 38.7892 7.86487 39.0821 8.15776C39.375 8.45065 39.375 8.92206 39.375 9.86487V30.2399C39.375 31.1827 39.375 31.6541 39.0821 31.947C38.7892 32.2399 38.3178 32.2399 37.375 32.2399Z" fill="#7E869E" fill-opacity="0.25" stroke="#222222" stroke-width="1.2"/>
</svg>
