<svg width="45" height="46" viewBox="0 0 45 46" fill="none" xmlns="http://www.w3.org/2000/svg">
<path d="M9.375 7.98987C9.375 6.8853 10.2704 5.98987 11.375 5.98987H22.25C22.3881 5.98987 22.5 6.1018 22.5 6.23987V17.1149C22.5 18.2194 23.3954 19.1149 24.5 19.1149H35.375C35.5131 19.1149 35.625 19.2268 35.625 19.3649V37.7399C35.625 38.8444 34.7296 39.7399 33.625 39.7399H11.375C10.2704 39.7399 9.375 38.8444 9.375 37.7399V7.98987Z" fill="#7E869E" fill-opacity="0.25"/>
<path d="M24.375 16.2399V6.59342C24.375 6.3707 24.6443 6.25915 24.8018 6.41665L35.1982 16.8131C35.3557 16.9706 35.2442 17.2399 35.0214 17.2399H25.375C24.8227 17.2399 24.375 16.7922 24.375 16.2399Z" fill="#222222"/>
</svg>
